# xmcd
#
# Track frame offsets: 
#        182
#        16030
#        28302
#        43395
#        58242
#        77595
#        92395
#        106725
#        125255
#        139665
#        156980
#        173502
#        196182
#        212010
#        231352
#
# Disc length: 3305 seconds
#
# Revision: 9
# Processed by: cddbd v1.5.2PL0 Copyright (c) Steve Scherf et al.
# Submitted via: ExactAudioCopy v1.0b3
#
DISCID=bf0ce70f
DTITLE=Dr. Alban - Born in Africa
DYEAR=1996
DGENRE=Pop
TTITLE0=Born In Africa
TTITLE1=Riddle Of Life
TTITLE2=Alabalaba (Woman's Sexy)
TTITLE3=Hallelujah Day
TTITLE4=Rock Steady (Pupulala)
TTITLE5=I Feel The Music
TTITLE6=Then I Fell In Love
TTITLE7=I Said It Once
TTITLE8=Rich Man - Poor Man
TTITLE9=This Time I'm Free
TTITLE10=So Long
TTITLE11=Feel Like Making Love
TTITLE12=Rock The Woman - Shake It (Todd Terry Mix)
TTITLE13=This Time I'm Free (Todd Terry Remix) (Edit)
TTITLE14=Born In Africa (Pierre J's Radio Remix)
EXTD=
EXTT0=
EXTT1=
EXTT2=
EXTT3=
EXTT4=
EXTT5=
EXTT6=
EXTT7=
EXTT8=
EXTT9=
EXTT10=
EXTT11=
EXTT12=
EXTT13=
EXTT14=
PLAYORDER=
